<svg width="40" height="40" viewBox="0 0 40 40" fill="none" xmlns="http://www.w3.org/2000/svg">
  <defs>
    <linearGradient id="planeGradient" x1="0%" y1="0%" x2="100%" y2="100%">
      <stop offset="0%" style="stop-color:#64d0ff;stop-opacity:1" />
      <stop offset="100%" style="stop-color:#50b8e5;stop-opacity:1" />
    </linearGradient>
  </defs>
  
  <!-- Corpo principal do avião -->
  <path d="M35 20 L8 20 C8 18.9 8.9 18 10 18 L33 18 C34.1 18 35 18.9 35 20 Z" fill="url(#planeGradient)"/>
  <path d="M35 20 L8 20 C8 21.1 8.9 22 10 22 L33 22 C34.1 22 35 21.1 35 20 Z" fill="url(#planeGradient)"/>
  
  <!-- Nariz do avião -->
  <path d="M35 20 L38 18 L38 22 Z" fill="url(#planeGradient)"/>
  
  <!-- Asa superior -->
  <path d="M18 18 L18 10 L28 12 L28 18 Z" fill="url(#planeGradient)" opacity="0.9"/>
  
  <!-- Asa inferior -->
  <path d="M18 22 L18 30 L28 28 L28 22 Z" fill="url(#planeGradient)" opacity="0.9"/>
  
  <!-- Cauda vertical -->
  <path d="M8 18 L8 12 L12 14 L12 18 Z" fill="url(#planeGradient)" opacity="0.8"/>
  <path d="M8 22 L8 28 L12 26 L12 22 Z" fill="url(#planeGradient)" opacity="0.8"/>
  
  <!-- Janelas -->
  <circle cx="15" cy="20" r="1" fill="white" opacity="0.7"/>
  <circle cx="20" cy="20" r="1" fill="white" opacity="0.7"/>
  <circle cx="25" cy="20" r="1" fill="white" opacity="0.7"/>
  <circle cx="30" cy="20" r="1" fill="white" opacity="0.7"/>
</svg>